<?xml version="1.0" encoding="utf-8"?>
<!-- Generator: Adobe Illustrator 16.0.0, SVG Export Plug-In . SVG Version: 6.00 Build 0)  -->
<!DOCTYPE svg PUBLIC "-//W3C//DTD SVG 1.1//EN" "http://www.w3.org/Graphics/SVG/1.1/DTD/svg11.dtd">
<svg version="1.1" id="Layer_1" xmlns="http://www.w3.org/2000/svg" xmlns:xlink="http://www.w3.org/1999/xlink" x="0px" y="0px"
	 width="223px" height="192px" viewBox="0 0 223 192" style="enable-background:new 0 0 223 192;" xml:space="preserve">
<path d="M139.869,25.683c0,0,43.353-23.7,54.913-25.434s8.67,54.913,8.67,54.913s23.121,12.717,17.919,68.208S158.1,191,110.834,191
	S9.811,177.128,1.718,126.839S16.747,55.74,16.747,55.74s0.578-50.367,7.515-55.53s56.647,26.051,56.647,26.051
	S106.344,17.012,139.869,25.683z"/>
<path style="fill:#FFFFFF;" d="M110.834,90.463c10.537,0,34.814-5.618,49.266-3.306s32.948,16.762,32.948,36.994
	s-4.89,49.712-82.214,49.134c-77.324-0.578-80.772-28.285-80.792-43.339c-0.023-17.558,11.561-43.355,28.324-43.347
	C76.871,86.608,102.255,90.463,110.834,90.463z"/>
<ellipse style="fill:#020202;" cx="72.863" cy="132.908" rx="13.295" ry="19.942"/>
<ellipse style="fill:#020202;" cx="150.17" cy="132.908" rx="13.295" ry="19.941"/>
</svg>
